<svg width="20" height="20" viewBox="0 0 20 20" fill="none" xmlns="http://www.w3.org/2000/svg">
<path fill-rule="evenodd" clip-rule="evenodd" d="M3.33341 4.16669C3.33341 3.70645 3.70651 3.33335 4.16675 3.33335H15.8334C16.2937 3.33335 16.6667 3.70645 16.6667 4.16669V15.8334C16.6667 16.2936 16.2937 16.6667 15.8334 16.6667L15.0001 16.6667C15.0001 14.3655 13.1346 12.5 10.8334 12.5H9.16675C6.86556 12.5 5.00008 14.3655 5.00008 16.6667L4.16675 16.6667C3.70651 16.6667 3.33341 16.2936 3.33341 15.8334V4.16669ZM6.66675 16.6667H13.3334C13.3334 15.286 12.2141 14.1667 10.8334 14.1667H9.16675C7.78604 14.1667 6.66675 15.286 6.66675 16.6667ZM4.16675 1.66669C2.78604 1.66669 1.66675 2.78598 1.66675 4.16669V15.8334C1.66675 17.2141 2.78604 18.3334 4.16675 18.3334H15.8334C17.2141 18.3334 18.3334 17.2141 18.3334 15.8334V4.16669C18.3334 2.78598 17.2141 1.66669 15.8334 1.66669H4.16675ZM8.33341 8.33335C8.33341 9.25383 9.07961 10 10.0001 10C10.9206 10 11.6667 9.25383 11.6667 8.33335C11.6667 7.41288 10.9206 6.66669 10.0001 6.66669C9.07961 6.66669 8.33341 7.41288 8.33341 8.33335ZM10.0001 5.00002C8.15913 5.00002 6.66675 6.4924 6.66675 8.33335C6.66675 10.1743 8.15913 11.6667 10.0001 11.6667C11.841 11.6667 13.3334 10.1743 13.3334 8.33335C13.3334 6.4924 11.841 5.00002 10.0001 5.00002Z" fill="#141313"/>
</svg>
