<svg width="20" height="20" viewBox="0 0 20 20" fill="none" xmlns="http://www.w3.org/2000/svg">
<path fill-rule="evenodd" clip-rule="evenodd" d="M4.10738 3.69077C5.57185 2.22631 7.94622 2.22631 9.41068 3.69077C10.8751 5.15524 10.8751 7.52961 9.41068 8.99407C8.86558 9.53918 8.19441 9.88138 7.49102 10.0207L9.56258 12.0922C9.70188 11.3889 10.0441 10.7177 10.5892 10.1726C12.0537 8.70812 14.428 8.70812 15.8925 10.1726C17.357 11.6371 17.357 14.0114 15.8925 15.4759C14.5276 16.8408 12.3724 16.9336 10.9 15.7543L10.8838 15.7705L10.5892 15.4759L4.10738 8.99407L3.81275 8.69945L3.82894 8.68326C2.64969 7.21089 2.7425 5.05565 4.10738 3.69077ZM11.7677 14.2974C12.5813 15.111 13.9004 15.111 14.714 14.2974C15.5276 13.4838 15.5276 12.1647 14.714 11.3511C13.9004 10.5375 12.5813 10.5375 11.7677 11.3511C10.9541 12.1647 10.9541 13.4838 11.7677 14.2974ZM8.23217 7.81556C7.41858 8.62916 6.09949 8.62916 5.28589 7.81556C4.4723 7.00197 4.4723 5.68288 5.28589 4.86929C6.09949 4.05569 7.41858 4.05569 8.23217 4.86929C9.04576 5.68288 9.04576 7.00197 8.23217 7.81556Z" fill="#141313"/>
</svg>
