<svg width="66" height="104" viewBox="0 0 66 104" fill="none" xmlns="http://www.w3.org/2000/svg">
<rect x="30.2524" y="0.509644" width="3.05551" height="3.05551" fill="#141313"/>
<rect x="15.2983" y="0.509644" width="3.05551" height="3.05551" fill="#141313"/>
<rect y="0.509644" width="3.05551" height="3.05551" fill="#141313"/>
<rect x="47.5669" y="0.000213623" width="3.05551" height="3.05551" transform="rotate(30 47.5669 0.000213623)" fill="#141313"/>
<rect x="64.4722" y="0.000213623" width="3.05551" height="3.05551" transform="rotate(60 64.4722 0.000213623)" fill="#141313"/>
<rect x="30.2524" y="14.6829" width="3.05551" height="3.05551" fill="#141313"/>
<rect x="15.2983" y="14.6829" width="3.05551" height="3.05551" fill="#141313"/>
<rect y="14.6829" width="3.05551" height="3.05551" fill="#141313"/>
<rect x="47.5669" y="14.1739" width="3.05551" height="3.05551" transform="rotate(30 47.5669 14.1739)" fill="#141313"/>
<rect x="64.4722" y="14.1739" width="3.05551" height="3.05551" transform="rotate(60 64.4722 14.1739)" fill="#141313"/>
<rect x="30.2524" y="28.8569" width="3.05551" height="3.05551" fill="#141313"/>
<rect x="15.2983" y="28.8569" width="3.05551" height="3.05551" fill="#141313"/>
<rect y="28.8569" width="3.05551" height="3.05551" fill="#141313"/>
<rect x="47.5176" y="28.3476" width="3.05551" height="3.05551" transform="rotate(30 47.5176 28.3476)" fill="#141313"/>
<rect x="64.4722" y="28.3476" width="3.05551" height="3.05551" transform="rotate(60 64.4722 28.3476)" fill="#141313"/>
<rect x="30.2524" y="43.0309" width="3.05551" height="3.05551" fill="#141313"/>
<rect x="15.2983" y="43.0309" width="3.05551" height="3.05551" fill="#141313"/>
<rect y="43.0309" width="3.05551" height="3.05551" fill="#141313"/>
<rect x="47.5669" y="42.5215" width="3.05551" height="3.05551" transform="rotate(30 47.5669 42.5215)" fill="#141313"/>
<rect x="64.4722" y="42.5215" width="3.05551" height="3.05551" transform="rotate(60 64.4722 42.5215)" fill="#141313"/>
<rect x="30.2524" y="57.2048" width="3.05551" height="3.05551" fill="#141313"/>
<rect x="15.2983" y="57.2048" width="3.05551" height="3.05551" fill="#141313"/>
<rect y="57.2048" width="3.05551" height="3.05551" fill="#141313"/>
<rect x="47.5669" y="56.6957" width="3.05551" height="3.05551" transform="rotate(30 47.5669 56.6957)" fill="#141313"/>
<rect x="64.4722" y="56.6957" width="3.05551" height="3.05551" transform="rotate(60 64.4722 56.6957)" fill="#141313"/>
<rect x="30.2524" y="71.3785" width="3.05551" height="3.05551" fill="#141313"/>
<rect x="15.2983" y="71.3785" width="3.05551" height="3.05551" fill="#141313"/>
<rect y="71.3785" width="3.05551" height="3.05551" fill="#141313"/>
<rect x="47.5176" y="70.8694" width="3.05551" height="3.05551" transform="rotate(30 47.5176 70.8694)" fill="#141313"/>
<rect x="64.4722" y="70.8694" width="3.05551" height="3.05551" transform="rotate(60 64.4722 70.8694)" fill="#141313"/>
<rect x="30.2524" y="85.553" width="3.05551" height="3.05551" fill="#141313"/>
<rect x="15.2983" y="85.553" width="3.05551" height="3.05551" fill="#141313"/>
<rect y="85.553" width="3.05551" height="3.05551" fill="#141313"/>
<rect x="47.5669" y="85.0436" width="3.05551" height="3.05551" transform="rotate(30 47.5669 85.0436)" fill="#141313"/>
<rect x="64.4722" y="85.0436" width="3.05551" height="3.05551" transform="rotate(60 64.4722 85.0436)" fill="#141313"/>
<rect x="30.2524" y="99.7264" width="3.05551" height="3.05551" fill="#141313"/>
<rect x="15.2983" y="99.7264" width="3.05551" height="3.05551" fill="#141313"/>
<rect y="99.7264" width="3.05551" height="3.05551" fill="#141313"/>
<rect x="47.5669" y="99.2173" width="3.05551" height="3.05551" transform="rotate(30 47.5669 99.2173)" fill="#141313"/>
<rect x="64.4722" y="99.2173" width="3.05551" height="3.05551" transform="rotate(60 64.4722 99.2173)" fill="#141313"/>
</svg>
